<svg id="Capa_7" data-name="Capa 7" xmlns="http://www.w3.org/2000/svg" viewBox="0 0 26.28 83.6"><defs><style>.cls-1{opacity:0.5;}.cls-2{fill:#02ff77;}</style></defs><g class="cls-1"><path class="cls-2" d="M1165.53,154.26h-4.73a7.25,7.25,0,0,1-5.28-1.82,7,7,0,0,1-1.86-5.25V133.46a7,7,0,0,1,1.86-5.24,7.21,7.21,0,0,1,5.28-1.82h4.73a7.19,7.19,0,0,1,5.26,1.84,7,7,0,0,1,1.89,5.22v2a.85.85,0,0,1-1,.95h-3.64a.83.83,0,0,1-.91-.95v-1.78a2.16,2.16,0,0,0-2.55-2.56h-2.95a2.67,2.67,0,0,0-1.93.59,2.73,2.73,0,0,0-.58,2v13.21a2.74,2.74,0,0,0,.58,2,2.67,2.67,0,0,0,1.93.58h2.95a2.15,2.15,0,0,0,2.55-2.56v-1.77c0-.64.31-1,.91-1h3.64a.85.85,0,0,1,1,1v2a7,7,0,0,1-1.89,5.23A7.23,7.23,0,0,1,1165.53,154.26Z" transform="translate(-1152.5 -126.4)"/><path class="cls-2" d="M1166,210h-5.68a1,1,0,0,1-1.08-.91l-6.72-26c-.2-.67.09-1,.87-1h4.07a1,1,0,0,1,1,.91l4.55,21.32h.18l4.55-21.32a1,1,0,0,1,1-.91h4.07c.72,0,1,.33.86,1l-6.71,26A1,1,0,0,1,1166,210Z" transform="translate(-1152.5 -126.4)"/><path class="cls-2" d="M1153.42,166.92v-1c0-.27.06-.54.1-.8a9.85,9.85,0,0,1,5.83-7.78,9.91,9.91,0,0,1,12.28,14.49,2.55,2.55,0,0,0-.14.24,2.42,2.42,0,0,1,1.23.74l5.31,5.3a3.17,3.17,0,0,1,.34.39,2.09,2.09,0,0,1,0,2.51,2.3,2.3,0,0,1-1.39.82h-.54a3,3,0,0,1-1.57-1c-1.53-1.54-3.08-3.07-4.62-4.61a3.45,3.45,0,0,1-1.22-1.7l-.22.13a9.7,9.7,0,0,1-4.11,1.54,9.44,9.44,0,0,1-5.47-.8,9.68,9.68,0,0,1-5.69-7.73C1153.48,167.44,1153.45,167.18,1153.42,166.92Zm16.64-.51a6.72,6.72,0,1,0-6.71,6.74A6.72,6.72,0,0,0,1170.06,166.41Z" transform="translate(-1152.5 -126.4)"/></g></svg>