<svg id="logos" xmlns="http://www.w3.org/2000/svg" viewBox="0 0 611.52 425.54"><defs><style>.cls-1{fill:#ccc;}.cls-2{fill:#02ff77;}</style></defs><path class="cls-1" d="M433.19,582.81v3.74c0,.88-.47,1.31-1.42,1.31H417.11q-7,0-11-3.94t-4-11V551.25q0-7.08,4-11t11-3.94h14.66a1.25,1.25,0,0,1,1.42,1.41v3.75c0,.87-.47,1.31-1.42,1.31H417.92q-8.4,0-8.4,8.8v21q0,8.8,8.4,8.8h13.85A1.25,1.25,0,0,1,433.19,582.81Z" transform="translate(-353.97 -177.09)"/><path class="cls-1" d="M466.16,587.86h-8.7q-7,0-11-3.94t-4-11V551.25q0-7.08,4-11t11-3.94h8.7q7,0,11,3.94t4,11v21.64q0,7.08-4,11T466.16,587.86Zm-7.89-6.47h7.08q8.5,0,8.5-8.7V551.45q0-8.7-8.5-8.7h-7.08q-8.49,0-8.5,8.7v21.24Q449.77,581.39,458.27,581.39Z" transform="translate(-353.97 -177.09)"/><path class="cls-1" d="M500,587.86h-4.55a1.25,1.25,0,0,1-1.41-1.41V537.69a1.25,1.25,0,0,1,1.41-1.41H500a1.25,1.25,0,0,1,1.42,1.41v3.95h.41q2.52-5.35,10.31-5.36h5.67q6.87,0,10.72,3.94t3.84,11v35.2a1.25,1.25,0,0,1-1.41,1.41h-4.56a1.25,1.25,0,0,1-1.41-1.41v-34.9q0-8.79-8.5-8.8h-5.66c-3,0-5.36.81-7,2.43a9.3,9.3,0,0,0-2.43,6.88v34.39A1.25,1.25,0,0,1,500,587.86Z" transform="translate(-353.97 -177.09)"/><path class="cls-1" d="M590.47,587.86h-5q-7,0-11-3.94t-4-11V551.25q0-7.08,4-11t11-3.94h22a1.25,1.25,0,0,1,1.42,1.41v63.52a1.26,1.26,0,0,1-1.42,1.42h-4.55a1.25,1.25,0,0,1-1.42-1.42V582.4h-.4Q598.15,587.86,590.47,587.86Zm11-16.08V543.66c0-.6-.34-.91-1-.91H586.32q-8.4,0-8.39,8.8v21q0,8.8,8.39,8.8h5.56q4.65,0,7.13-2.58A9.69,9.69,0,0,0,601.49,571.78Z" transform="translate(-353.97 -177.09)"/><path class="cls-1" d="M642.56,587.86h-5.67q-6.87,0-10.72-3.94t-3.84-11v-35.2a1.25,1.25,0,0,1,1.41-1.41h4.56a1.25,1.25,0,0,1,1.41,1.41v34.9q0,8.8,8.4,8.8h5.76c3,0,5.36-.81,7-2.43a9.3,9.3,0,0,0,2.43-6.88V537.69a1.25,1.25,0,0,1,1.41-1.41h4.56a1.25,1.25,0,0,1,1.41,1.41v48.76a1.25,1.25,0,0,1-1.41,1.41h-4.56a1.25,1.25,0,0,1-1.41-1.41v-4h-.41Q650.35,587.87,642.56,587.86Z" transform="translate(-353.97 -177.09)"/><path class="cls-1" d="M710,587.86H688.58c-4.66,0-8.31-1.31-11-3.94s-4-6.31-4-11V551.25q0-7.08,4-11c2.67-2.63,6.32-3.94,11-3.94h8.49q7,0,10.93,3.94t3.94,11v12.84c0,1-.47,1.52-1.41,1.52H681.9c-.67,0-1,.31-1,.91v6.17q0,8.8,8.5,8.8H710a1.26,1.26,0,0,1,1.42,1.42v3.64C711.44,587.43,711,587.86,710,587.86ZM681.9,560.25h21.85a.9.9,0,0,0,1-1v-7.79q0-8.7-8.5-8.7h-6.87q-8.5,0-8.5,8.7v7.79A.9.9,0,0,0,681.9,560.25Z" transform="translate(-353.97 -177.09)"/><path class="cls-1" d="M746.13,536.28h4.75a1.55,1.55,0,0,1,1.62,1.41l12.14,42.79h.5l12-42.79a1.69,1.69,0,0,1,1.72-1.41h4.75c1,0,1.28.47,1,1.41L770.1,586.35a1.68,1.68,0,0,1-1.82,1.51H761.4a1.77,1.77,0,0,1-1.82-1.51l-14.46-48.66C744.85,536.75,745.18,536.28,746.13,536.28Z" transform="translate(-353.97 -177.09)"/><path class="cls-1" d="M794.17,527.78v-9.51q0-1.41,1.32-1.41h4.65a1.25,1.25,0,0,1,1.42,1.41v9.51a1.26,1.26,0,0,1-1.42,1.42h-4.65C794.61,529.2,794.17,528.73,794.17,527.78Zm0,58.67V537.69q0-1.41,1.32-1.41h4.65a1.25,1.25,0,0,1,1.42,1.41v48.76a1.25,1.25,0,0,1-1.42,1.41h-4.55A1.25,1.25,0,0,1,794.17,586.45Z" transform="translate(-353.97 -177.09)"/><path class="cls-1" d="M846.06,582.81v3.74c0,.88-.47,1.31-1.42,1.31H830c-4.66,0-8.31-1.31-11-3.94s-4-6.31-4-11V551.25q0-7.08,4-11c2.67-2.63,6.32-3.94,11-3.94h14.66a1.25,1.25,0,0,1,1.42,1.41v3.75c0,.87-.47,1.31-1.42,1.31H830.79q-8.4,0-8.4,8.8v21q0,8.8,8.4,8.8h13.85A1.25,1.25,0,0,1,846.06,582.81Z" transform="translate(-353.97 -177.09)"/><path class="cls-1" d="M856.88,527.78v-9.51q0-1.41,1.32-1.41h4.65a1.25,1.25,0,0,1,1.41,1.41v9.51a1.25,1.25,0,0,1-1.41,1.42H858.2C857.32,529.2,856.88,528.73,856.88,527.78Zm0,58.67V537.69q0-1.41,1.32-1.41h4.65a1.25,1.25,0,0,1,1.41,1.41v48.76a1.25,1.25,0,0,1-1.41,1.41H858.3A1.25,1.25,0,0,1,856.88,586.45Z" transform="translate(-353.97 -177.09)"/><path class="cls-1" d="M901.38,587.86h-8.69c-4.66,0-8.31-1.31-11-3.94s-4-6.31-4-11V551.25q0-7.08,4-11c2.67-2.63,6.32-3.94,11-3.94h8.69c4.66,0,8.31,1.31,11,3.94s4,6.31,4,11v21.64q0,7.08-4,11C909.69,586.55,906,587.86,901.38,587.86Zm-7.88-6.47h7.08q8.49,0,8.49-8.7V551.45q0-8.7-8.49-8.7H893.5q-8.5,0-8.5,8.7v21.24Q885,581.39,893.5,581.39Z" transform="translate(-353.97 -177.09)"/><path class="cls-2" d="M457.54,426.82h-41.2q-29.86,0-46.12-15.88T354,365.2V245.38q0-29.87,16.25-45.74t46.12-15.88h41.2q29.49,0,45.93,16.07t16.44,45.55v17.76q0,8.33-8.32,8.32H479.84q-7.93,0-7.94-8.32V247.65q0-12.1-5.1-17.2t-17.2-5.11H423.9q-11.73,0-16.82,5.11T402,247.65V362.94q0,12.09,5.11,17.2t16.82,5.1h25.7q12.09,0,17.2-5.1t5.1-17.2v-15.5q0-8.31,7.94-8.32h31.75q8.31,0,8.32,8.32V365.2q0,29.49-16.44,45.55T457.54,426.82Z" transform="translate(-353.97 -177.09)"/><path class="cls-2" d="M897.51,426.82H848q-7.95,0-9.45-7.94L780,192.46q-2.65-8.7,7.56-8.7h35.53q7.56,0,9.07,7.94l39.69,186h1.51L913,191.7q1.51-7.94,9.07-7.94h35.54q9.43,0,7.56,8.7L906.59,418.88Q904.69,426.82,897.51,426.82Z" transform="translate(-353.97 -177.09)"/><path class="cls-2" d="M539,281.05l2.08-11.71c1-3.11,1.9-6.22,2.87-9.32a118.93,118.93,0,0,1,157.43-74.36c24.35,9.74,43.64,25.76,57.39,48.26a119.16,119.16,0,0,1-14.89,144c-.71.75-1.37,1.55-2.2,2.51,5.91,2.44,9.69,6.63,13,11.44q25.68,37,51.49,73.92a51.9,51.9,0,0,1,3.26,5.32c5.06,9.51,2.5,22.46-5.57,29.62-5.25,4.65-11.41,6.47-18.2,6.8l-6.45-1.15c-7.37-2.83-12.11-8.47-16.46-14.78-14.84-21.54-29.91-42.91-44.82-64.4-4.81-6.91-10.72-13.31-10.87-22.65-1.24.47-2.08.75-2.89,1.1a117.76,117.76,0,0,1-51.8,9.47c-23-1-44.36-7.63-63-21.09-35.19-25.37-52.19-60-50.89-103.53C538.54,287.33,538.79,284.19,539,281.05Zm197.86,29.34a80.75,80.75,0,0,0-159-28.24c-7.76,43.91,21.57,86,65.34,93.65S729.13,354.1,736.83,310.39Z" transform="translate(-353.97 -177.09)"/></svg>