<svg id="Capa_7" data-name="Capa 7" xmlns="http://www.w3.org/2000/svg" viewBox="0 0 611.52 443.44"><defs><style>.cls-1{font-size:101.15px;fill:#ccc;font-family:Rajdhani-Medium, Rajdhani;font-weight:500;}.cls-2{fill:#02ff77;}</style></defs><text class="cls-1" transform="translate(42.2 410.77)">con que vicio</text><path class="cls-2" d="M457.54,426.82h-41.2q-29.86,0-46.12-15.88T354,365.2V245.38q0-29.87,16.25-45.74t46.12-15.88h41.2q29.49,0,45.93,16.07t16.44,45.55v17.76q0,8.33-8.32,8.32H479.84q-7.93,0-7.94-8.32V247.65q0-12.1-5.1-17.2t-17.2-5.11H423.9q-11.73,0-16.82,5.11T402,247.65V362.94q0,12.09,5.11,17.2t16.82,5.1h25.7q12.09,0,17.2-5.1t5.1-17.2v-15.5q0-8.31,7.94-8.32h31.75q8.31,0,8.32,8.32V365.2q0,29.49-16.44,45.55T457.54,426.82Z" transform="translate(-353.97 -177.09)"/><path class="cls-2" d="M897.51,426.82H848q-7.95,0-9.45-7.94L780,192.46q-2.65-8.7,7.56-8.7h35.53q7.56,0,9.07,7.94l39.69,186h1.51L913,191.7q1.51-7.94,9.07-7.94h35.54q9.43,0,7.56,8.7L906.59,418.88Q904.69,426.82,897.51,426.82Z" transform="translate(-353.97 -177.09)"/><path class="cls-2" d="M539,281.05l2.08-11.71c1-3.11,1.9-6.22,2.87-9.32a118.93,118.93,0,0,1,157.43-74.36c24.35,9.74,43.64,25.76,57.39,48.26a119.16,119.16,0,0,1-14.89,144c-.71.75-1.37,1.55-2.2,2.51,5.91,2.44,9.69,6.63,13,11.44q25.68,37,51.49,73.92a51.9,51.9,0,0,1,3.26,5.32c5.06,9.51,2.5,22.46-5.57,29.62-5.25,4.65-11.41,6.47-18.2,6.8l-6.45-1.15c-7.37-2.83-12.11-8.47-16.46-14.78-14.84-21.54-29.91-42.91-44.82-64.4-4.81-6.91-10.72-13.31-10.87-22.65-1.24.47-2.08.75-2.89,1.1a117.76,117.76,0,0,1-51.8,9.47c-23-1-44.36-7.63-63-21.09-35.19-25.37-52.19-60-50.89-103.53C538.54,287.33,538.79,284.19,539,281.05Zm197.86,29.34a80.75,80.75,0,0,0-159-28.24c-7.76,43.91,21.57,86,65.34,93.65S729.13,354.1,736.83,310.39Z" transform="translate(-353.97 -177.09)"/></svg>