<svg id="logos" xmlns="http://www.w3.org/2000/svg" xmlns:xlink="http://www.w3.org/1999/xlink" viewBox="0 0 397.37 444.99"><defs><style>.cls-1{fill:none;}.cls-2{isolation:isolate;}.cls-3{fill:#751722;}.cls-4{fill:#8a1a28;}.cls-5{clip-path:url(#clip-path);}.cls-6{fill:#911c2a;}.cls-7{fill:#8c1b29;}.cls-8{fill:#881a27;}.cls-9{fill:#831926;}.cls-10{clip-path:url(#clip-path-2);}.cls-11{fill:#7a1723;}.cls-12{fill:#7e1825;}.cls-13{fill:#ce283c;}.cls-14{fill:#085379;}.cls-15{fill:#06405d;}.cls-16{fill:#064564;}.cls-17{fill:#06415e;}.cls-18{fill:#0b72a5;}.cls-19{fill:#e6e6e6;}</style><clipPath id="clip-path" transform="translate(-477.21 -155.66)"><path class="cls-1" d="M587.32,388.72l-8.11-4.39Q593.45,392,618,391q12.08-.51,27.91-5.52l8.12,4.4q-15.84,5-27.92,5.52Q601.58,396.39,587.32,388.72Z"/></clipPath><clipPath id="clip-path-2" transform="translate(-477.21 -155.66)"><path class="cls-1" d="M544.19,435.31l-8.11-4.39a96.49,96.49,0,0,1-22.78-17q-34.2-34.5-36-101.52-2-73.1,35.81-113.27t110.23-43.2q46.59-2,81.06,11.83l8.12,4.4Q678,158.35,631.47,160.3,559,163.36,521.23,203.5T485.42,316.77q1.81,67,36,101.52A96.6,96.6,0,0,0,544.19,435.31Z"/></clipPath></defs><g class="cls-2"><polygon class="cls-3" points="176.86 234.17 168.74 229.78 168.64 210.18 176.76 214.57 176.86 234.17"/><polygon class="cls-4" points="174.23 168.93 166.11 164.53 230.25 157.04 238.37 161.44 174.23 168.93"/><polygon class="cls-3" points="176.76 214.57 168.64 210.18 166.11 164.53 174.23 168.93 176.76 214.57"/><g class="cls-2"><g class="cls-5"><g class="cls-2"><path class="cls-6" d="M587.32,388.72l-8.11-4.39a54.84,54.84,0,0,0,16.73,5.47l8.11,4.4a54.66,54.66,0,0,1-16.73-5.48" transform="translate(-477.21 -155.66)"/><path class="cls-7" d="M604.05,394.2l-8.11-4.4A105.34,105.34,0,0,0,618,391h.19l8.12,4.4h-.2a106.1,106.1,0,0,1-22.1-1.15" transform="translate(-477.21 -155.66)"/><path class="cls-8" d="M626.35,395.34l-8.12-4.4a91.74,91.74,0,0,0,16.14-2.33l8.12,4.4a91.88,91.88,0,0,1-16.14,2.33" transform="translate(-477.21 -155.66)"/><path class="cls-9" d="M642.49,393l-8.12-4.4q5.52-1.26,11.58-3.18l8.12,4.4Q648,391.75,642.49,393" transform="translate(-477.21 -155.66)"/></g></g></g><g class="cls-2"><g class="cls-10"><g class="cls-2"><path class="cls-11" d="M544.19,435.31l-8.11-4.39a96.49,96.49,0,0,1-22.78-17q-34.2-34.5-36-101.52-2-73.1,35.81-113.27a119.22,119.22,0,0,1,19.8-16.91l8.12,4.39a120.24,120.24,0,0,0-19.81,16.92q-37.77,40.16-35.81,113.27,1.81,67,36,101.52a96.6,96.6,0,0,0,22.77,17" transform="translate(-477.21 -155.66)"/><path class="cls-12" d="M541,186.58l-8.12-4.39A131.83,131.83,0,0,1,556,169.68l8.11,4.4A132.37,132.37,0,0,0,541,186.58" transform="translate(-477.21 -155.66)"/><path class="cls-9" d="M564.11,174.08l-8.11-4.4a161.29,161.29,0,0,1,27.08-8.62l8.11,4.39a161.89,161.89,0,0,0-27.08,8.63" transform="translate(-477.21 -155.66)"/><path class="cls-8" d="M591.19,165.45l-8.11-4.39a221.78,221.78,0,0,1,39.53-5.12l8.11,4.39a223.87,223.87,0,0,0-39.53,5.12" transform="translate(-477.21 -155.66)"/><path class="cls-7" d="M630.72,160.33l-8.11-4.39.74,0a228.46,228.46,0,0,1,48.28,2.73l8.12,4.4a228.5,228.5,0,0,0-48.28-2.73l-.75,0" transform="translate(-477.21 -155.66)"/><path class="cls-6" d="M679.75,163l-8.12-4.4a162.08,162.08,0,0,1,32.78,9.1l8.12,4.4a161.44,161.44,0,0,0-32.78-9.1" transform="translate(-477.21 -155.66)"/></g></g></g><path class="cls-13" d="M651.44,324.59l64.14-7.5.19,38.76,2.36,71.79Q667.3,448.09,621.59,450q-66,2.78-100.17-31.71t-36-101.52q-2-73.11,35.81-113.27t110.24-43.2q46.57-2,81.06,11.83l-13,63.72-6,.25q-21.46-10.84-38.19-15.16a120.7,120.7,0,0,0-35.29-3.52q-23.28,1-36.86,10.05T563.46,256.4q-6.16,19.86-5.24,53.82.91,33.51,7.89,52.16t21.21,26.34q14.25,7.68,38.83,6.63,12.09-.51,27.92-5.52l-.1-19.6Z" transform="translate(-477.21 -155.66)"/></g><g class="cls-2"><polygon class="cls-14" points="376.16 86.85 358.17 78.35 379.37 76.09 397.37 84.59 376.16 86.85"/><polygon class="cls-15" points="257.76 341.07 239.77 332.56 236.14 322.05 254.13 330.56 257.76 341.07"/><polygon class="cls-16" points="254.13 330.56 236.14 322.05 317.16 137.4 335.15 145.9 254.13 330.56"/><polygon class="cls-14" points="288.04 92.7 270.04 84.19 358.17 78.35 376.16 86.85 288.04 92.7"/><polygon class="cls-15" points="236.41 157.17 218.41 148.67 215.18 143.29 233.17 151.79 236.41 157.17"/><polygon class="cls-14" points="237.46 94.33 219.46 85.83 270.04 84.19 288.04 92.7 237.46 94.33"/><polygon class="cls-17" points="233.17 151.79 215.18 143.29 219.46 85.83 237.46 94.33 233.17 151.79"/><polygon class="cls-18" points="237.46 94.33 288.04 92.7 376.16 86.85 397.37 84.59 397.18 134.47 335.07 280.03 309.52 352.67 257.76 341.07 254.13 330.56 335.15 145.9 277.22 149.74 236.41 157.17 233.17 151.79 237.46 94.33"/></g><path class="cls-19" d="M507.82,583.07a46.77,46.77,0,0,1-4.69-.23,39.54,39.54,0,0,1-5.52-1.08,11.37,11.37,0,0,1,2.8-3.51,6.18,6.18,0,0,1,4.57-1.4c.56,0,1,.07,1.34.07h1.11a14,14,0,0,0,7.11-1.84,17.66,17.66,0,0,0,5.45-5,24.32,24.32,0,0,0,3.49-7.28,30.18,30.18,0,0,0,1.23-8.67q0-10.56-5.41-16.57t-16.7-6c-1.39,0-2.77.06-4.15.16s-2.66.23-3.84.38v50.07h-8.37v-54.9a64,64,0,0,1,8.56-1.46,75.4,75.4,0,0,1,7.8-.46,41.1,41.1,0,0,1,13.2,1.95,26.73,26.73,0,0,1,9.76,5.69,24.1,24.1,0,0,1,6.06,9.06,33.21,33.21,0,0,1,2.07,12.09,31.77,31.77,0,0,1-2,11.52,28.71,28.71,0,0,1-5.57,9.17,25.69,25.69,0,0,1-8.21,6.07A23.49,23.49,0,0,1,507.82,583.07Z" transform="translate(-477.21 -155.66)"/><path class="cls-19" d="M556.42,557.81h8.91a11,11,0,0,0-.23-3.92,8.52,8.52,0,0,0-1.54-3.22,7.81,7.81,0,0,0-2.57-2.19,6.91,6.91,0,0,0-3.34-.81,9.26,9.26,0,0,0-7.37,3.57q-3,3.57-3,10.56a20.06,20.06,0,0,0,.88,6.14,14.47,14.47,0,0,0,2.46,4.72,10.92,10.92,0,0,0,3.76,3,10.64,10.64,0,0,0,4.72,1.07,21.76,21.76,0,0,0,5.07-.57,31.84,31.84,0,0,0,5.76-2.19l2.15,5.6a28.74,28.74,0,0,1-7.41,2.69,33.62,33.62,0,0,1-6.49.69,18.39,18.39,0,0,1-8.06-1.69,17.74,17.74,0,0,1-6-4.57,19.75,19.75,0,0,1-3.73-6.72,25.87,25.87,0,0,1-1.26-8.13,24.39,24.39,0,0,1,1.38-8.45,17.77,17.77,0,0,1,3.91-6.37,17.42,17.42,0,0,1,6.07-4,20.91,20.91,0,0,1,7.83-1.42,14.53,14.53,0,0,1,12.33,6.49,15.5,15.5,0,0,1,2.41,6.87,19.74,19.74,0,0,1-.92,8.3H550.05a11,11,0,0,1,2.34-3.88A5.29,5.29,0,0,1,556.42,557.81Z" transform="translate(-477.21 -155.66)"/><path class="cls-19" d="M601.88,582.15H593.2l-14.89-39.7h8.75l10.67,32.17.54-2.07,10.06-30.1h8.44Z" transform="translate(-477.21 -155.66)"/><path class="cls-19" d="M639,557.81h8.91a10.82,10.82,0,0,0-.23-3.92,8.66,8.66,0,0,0-1.53-3.22,7.94,7.94,0,0,0-2.58-2.19,6.88,6.88,0,0,0-3.34-.81,9.28,9.28,0,0,0-7.37,3.57q-3,3.57-3,10.56a20.06,20.06,0,0,0,.88,6.14,14.47,14.47,0,0,0,2.46,4.72,11,11,0,0,0,3.76,3,10.64,10.64,0,0,0,4.72,1.07,21.76,21.76,0,0,0,5.07-.57,31.29,31.29,0,0,0,5.76-2.19l2.15,5.6a28.74,28.74,0,0,1-7.41,2.69,33.62,33.62,0,0,1-6.49.69,18.39,18.39,0,0,1-8.06-1.69,17.84,17.84,0,0,1-6-4.57A19.56,19.56,0,0,1,623,570a25.59,25.59,0,0,1-1.27-8.13,24.39,24.39,0,0,1,1.38-8.45,17.79,17.79,0,0,1,3.92-6.37,17.47,17.47,0,0,1,6.06-4,21,21,0,0,1,7.83-1.42,14.53,14.53,0,0,1,12.33,6.49,15.63,15.63,0,0,1,2.42,6.87,19.9,19.9,0,0,1-.92,8.3H632.59a11.12,11.12,0,0,1,2.34-3.88A5.31,5.31,0,0,1,639,557.81Z" transform="translate(-477.21 -155.66)"/><path class="cls-19" d="M674.29,523.94v58.21h-8.14V523.94Z" transform="translate(-477.21 -155.66)"/><path class="cls-19" d="M682.88,562.26a22.48,22.48,0,0,1,1.73-9.18,19.88,19.88,0,0,1,4.46-6.45,17.5,17.5,0,0,1,6.14-3.8A20,20,0,0,1,702,541.6a19.45,19.45,0,0,1,8,1.58,17.78,17.78,0,0,1,6,4.34,18.8,18.8,0,0,1,3.8,6.56,25,25,0,0,1,1.3,8.18,23.11,23.11,0,0,1-1.57,8.83,19.65,19.65,0,0,1-4.22,6.49,18.07,18.07,0,0,1-6.11,4A19.27,19.27,0,0,1,702,583a20.59,20.59,0,0,1-7.41-1.34,16.66,16.66,0,0,1-6.06-4,19.41,19.41,0,0,1-4.11-6.52A24,24,0,0,1,682.88,562.26Zm8.68,0a23.23,23.23,0,0,0,.69,5.87,14,14,0,0,0,2,4.57,9.64,9.64,0,0,0,3.3,3,9.08,9.08,0,0,0,4.41,1.07,8.82,8.82,0,0,0,4.57-1.15,9.92,9.92,0,0,0,3.27-3.15,14.5,14.5,0,0,0,1.92-4.61,24.27,24.27,0,0,0,.61-5.6q0-7.07-3-10.75a9.35,9.35,0,0,0-11.51-2.76,9.3,9.3,0,0,0-3.31,2.76,14.09,14.09,0,0,0-2.22,4.53A21.62,21.62,0,0,0,691.56,562.26Z" transform="translate(-477.21 -155.66)"/><path class="cls-19" d="M767.19,562.49a22.32,22.32,0,0,1-1.45,8.18,20.59,20.59,0,0,1-3.88,6.37,17.66,17.66,0,0,1-5.61,4.15,15.36,15.36,0,0,1-6.56,1.49,27.09,27.09,0,0,1-3.77-.27,23.57,23.57,0,0,1-4.22-1,10.7,10.7,0,0,1,2.69-3.53,6.07,6.07,0,0,1,4.07-1.37A9,9,0,0,0,755.6,573q2.91-3.48,2.92-10.53a24.34,24.34,0,0,0-.66-5.82A15.32,15.32,0,0,0,756,552a9.46,9.46,0,0,0-3-3.07,7.82,7.82,0,0,0-4.18-1.11q-5.14,0-9.76,5.53v47.3h-8.13V556q0-4.38-.27-7.6a42.35,42.35,0,0,0-.89-5.91h6a6.92,6.92,0,0,1,1.61,1.69,11.48,11.48,0,0,1,1.16,2.38l.15,1.3.77-1.38a15.21,15.21,0,0,1,10.75-4.84,15.57,15.57,0,0,1,7.22,1.62,15.86,15.86,0,0,1,5.33,4.41,20.07,20.07,0,0,1,3.34,6.61A28.22,28.22,0,0,1,767.19,562.49Z" transform="translate(-477.21 -155.66)"/><path class="cls-19" d="M792.23,557.81h8.9a10.82,10.82,0,0,0-.23-3.92,8.66,8.66,0,0,0-1.53-3.22,7.94,7.94,0,0,0-2.58-2.19,6.88,6.88,0,0,0-3.34-.81,9.28,9.28,0,0,0-7.37,3.57q-3,3.57-3,10.56a20.06,20.06,0,0,0,.88,6.14,14.47,14.47,0,0,0,2.46,4.72,11,11,0,0,0,3.76,3,10.64,10.64,0,0,0,4.72,1.07,21.76,21.76,0,0,0,5.07-.57,31.29,31.29,0,0,0,5.76-2.19l2.15,5.6a28.74,28.74,0,0,1-7.41,2.69A33.62,33.62,0,0,1,794,583a18.39,18.39,0,0,1-8.06-1.69,17.84,17.84,0,0,1-6-4.57,19.56,19.56,0,0,1-3.72-6.72,25.59,25.59,0,0,1-1.27-8.13,24.39,24.39,0,0,1,1.38-8.45,17.79,17.79,0,0,1,3.92-6.37,17.47,17.47,0,0,1,6.06-4,21,21,0,0,1,7.83-1.42,14.53,14.53,0,0,1,12.33,6.49,15.63,15.63,0,0,1,2.42,6.87,19.9,19.9,0,0,1-.92,8.3H785.85a11.27,11.27,0,0,1,2.34-3.88A5.32,5.32,0,0,1,792.23,557.81Z" transform="translate(-477.21 -155.66)"/><path class="cls-19" d="M818.1,542.45h6.14a6.86,6.86,0,0,1,1.62,2.61,28.79,28.79,0,0,1,.92,3.38V550l.69-1.53a13,13,0,0,1,4.22-4.76,9.77,9.77,0,0,1,5.61-1.85,14.23,14.23,0,0,1,4.14.7l-1,6.75a19.07,19.07,0,0,0-3.91-.53,8,8,0,0,0-3.53.8,9,9,0,0,0-3,2.42,11.83,11.83,0,0,0-2.11,4,19,19,0,0,0-.77,5.72v20.43h-7.75V555.66c0-2.2-.09-4.46-.27-6.76A44,44,0,0,0,818.1,542.45Z" transform="translate(-477.21 -155.66)"/><path class="cls-19" d="M845.74,579.69l2.08-5.68a28.52,28.52,0,0,0,6,2.07,25.66,25.66,0,0,0,5.34.61,6.87,6.87,0,0,0,4.88-1.49,5,5,0,0,0,1.57-3.73,4.35,4.35,0,0,0-1.38-3.3,15.33,15.33,0,0,0-3.46-2.38c-1.38-.71-2.87-1.42-4.45-2.11a24.48,24.48,0,0,1-4.45-2.5,12.92,12.92,0,0,1-3.46-3.57,9.4,9.4,0,0,1-1.38-5.26,9.65,9.65,0,0,1,.77-3.72,10.15,10.15,0,0,1,2.34-3.42,12,12,0,0,1,4-2.49,15.46,15.46,0,0,1,5.72-1,31.6,31.6,0,0,1,5,.42,37.55,37.55,0,0,1,6,1.57l-2,5.53a31.64,31.64,0,0,0-4.56-1.15,24.78,24.78,0,0,0-3.73-.31,7,7,0,0,0-4.07,1.12,3.79,3.79,0,0,0-1.61,3.34,4.25,4.25,0,0,0,1.38,3.22,14.8,14.8,0,0,0,3.46,2.38q2.07,1.08,4.45,2.15a26,26,0,0,1,4.45,2.57,13.36,13.36,0,0,1,3.46,3.65,9.8,9.8,0,0,1,1.38,5.38,9.36,9.36,0,0,1-1.07,4.41,11.74,11.74,0,0,1-2.92,3.57,14.29,14.29,0,0,1-4.22,2.42,14,14,0,0,1-4.92.88c-1,0-2,0-3.07-.07a23.44,23.44,0,0,1-3.38-.42,35.28,35.28,0,0,1-8.14-2.73Z" transform="translate(-477.21 -155.66)"/></svg>