<svg id="Capa_7" data-name="Capa 7" xmlns="http://www.w3.org/2000/svg" xmlns:xlink="http://www.w3.org/1999/xlink" viewBox="0 0 409.23 453.47"><defs><style>.cls-1{fill:none;}.cls-2{isolation:isolate;}.cls-3{fill:#751722;}.cls-4{fill:#8a1a28;}.cls-5{clip-path:url(#clip-path);}.cls-6{fill:#911c2a;}.cls-7{fill:#8c1b29;}.cls-8{fill:#881a27;}.cls-9{fill:#831926;}.cls-10{clip-path:url(#clip-path-2);}.cls-11{fill:#7a1723;}.cls-12{fill:#7e1825;}.cls-13{fill:#ce283c;}.cls-14{fill:#085379;}.cls-15{fill:#06405d;}.cls-16{fill:#064564;}.cls-17{fill:#06415e;}.cls-18{fill:#0b72a5;}.cls-19{font-size:76.78px;font-family:ExpletusSans-Medium, Expletus Sans;font-weight:500;}</style><clipPath id="clip-path" transform="translate(-477.21 -155.66)"><path class="cls-1" d="M587.32,388.72l-8.11-4.39Q593.45,392,618,391q12.08-.51,27.91-5.52l8.12,4.4q-15.84,5-27.92,5.52Q601.58,396.39,587.32,388.72Z"/></clipPath><clipPath id="clip-path-2" transform="translate(-477.21 -155.66)"><path class="cls-1" d="M544.19,435.31l-8.11-4.39a96.49,96.49,0,0,1-22.78-17q-34.2-34.5-36-101.52-2-73.1,35.81-113.27t110.23-43.2q46.59-2,81.06,11.83l8.12,4.4Q678,158.35,631.47,160.3,559,163.36,521.23,203.5T485.42,316.77q1.81,67,36,101.52A96.6,96.6,0,0,0,544.19,435.31Z"/></clipPath></defs><g class="cls-2"><polygon class="cls-3" points="176.86 234.17 168.74 229.78 168.64 210.18 176.76 214.57 176.86 234.17"/><polygon class="cls-4" points="174.23 168.93 166.11 164.53 230.25 157.04 238.37 161.44 174.23 168.93"/><polygon class="cls-3" points="176.76 214.57 168.64 210.18 166.11 164.53 174.23 168.93 176.76 214.57"/><g class="cls-2"><g class="cls-5"><g class="cls-2"><path class="cls-6" d="M587.32,388.72l-8.11-4.39a54.84,54.84,0,0,0,16.73,5.47l8.11,4.4a54.66,54.66,0,0,1-16.73-5.48" transform="translate(-477.21 -155.66)"/><path class="cls-7" d="M604.05,394.2l-8.11-4.4A105.34,105.34,0,0,0,618,391h.19l8.12,4.4h-.2a106.1,106.1,0,0,1-22.1-1.15" transform="translate(-477.21 -155.66)"/><path class="cls-8" d="M626.35,395.34l-8.12-4.4a91.74,91.74,0,0,0,16.14-2.33l8.12,4.4a91.88,91.88,0,0,1-16.14,2.33" transform="translate(-477.21 -155.66)"/><path class="cls-9" d="M642.49,393l-8.12-4.4q5.52-1.26,11.58-3.18l8.12,4.4Q648,391.75,642.49,393" transform="translate(-477.21 -155.66)"/></g></g></g><g class="cls-2"><g class="cls-10"><g class="cls-2"><path class="cls-11" d="M544.19,435.31l-8.11-4.39a96.49,96.49,0,0,1-22.78-17q-34.2-34.5-36-101.52-2-73.1,35.81-113.27a119.22,119.22,0,0,1,19.8-16.91l8.12,4.39a120.24,120.24,0,0,0-19.81,16.92q-37.77,40.16-35.81,113.27,1.81,67,36,101.52a96.6,96.6,0,0,0,22.77,17" transform="translate(-477.21 -155.66)"/><path class="cls-12" d="M541,186.58l-8.12-4.39A131.83,131.83,0,0,1,556,169.68l8.11,4.4A132.37,132.37,0,0,0,541,186.58" transform="translate(-477.21 -155.66)"/><path class="cls-9" d="M564.11,174.08l-8.11-4.4a161.29,161.29,0,0,1,27.08-8.62l8.11,4.39a161.89,161.89,0,0,0-27.08,8.63" transform="translate(-477.21 -155.66)"/><path class="cls-8" d="M591.19,165.45l-8.11-4.39a221.78,221.78,0,0,1,39.53-5.12l8.11,4.39a223.87,223.87,0,0,0-39.53,5.12" transform="translate(-477.21 -155.66)"/><path class="cls-7" d="M630.72,160.33l-8.11-4.39.74,0a228.46,228.46,0,0,1,48.28,2.73l8.12,4.4a228.5,228.5,0,0,0-48.28-2.73l-.75,0" transform="translate(-477.21 -155.66)"/><path class="cls-6" d="M679.75,163l-8.12-4.4a162.08,162.08,0,0,1,32.78,9.1l8.12,4.4a161.44,161.44,0,0,0-32.78-9.1" transform="translate(-477.21 -155.66)"/></g></g></g><path class="cls-13" d="M651.44,324.59l64.14-7.5.19,38.76,2.36,71.79Q667.3,448.09,621.59,450q-66,2.78-100.17-31.71t-36-101.52q-2-73.11,35.81-113.27t110.24-43.2q46.57-2,81.06,11.83l-13,63.72-6,.25q-21.46-10.84-38.19-15.16a120.7,120.7,0,0,0-35.29-3.52q-23.28,1-36.86,10.05T563.46,256.4q-6.16,19.86-5.24,53.82.91,33.51,7.89,52.16t21.21,26.34q14.25,7.68,38.83,6.63,12.09-.51,27.92-5.52l-.1-19.6Z" transform="translate(-477.21 -155.66)"/></g><g class="cls-2"><polygon class="cls-14" points="376.16 86.85 358.17 78.35 379.37 76.09 397.37 84.59 376.16 86.85"/><polygon class="cls-15" points="257.76 341.07 239.77 332.56 236.14 322.05 254.13 330.56 257.76 341.07"/><polygon class="cls-16" points="254.13 330.56 236.14 322.05 317.16 137.4 335.15 145.9 254.13 330.56"/><polygon class="cls-14" points="288.04 92.7 270.04 84.19 358.17 78.35 376.16 86.85 288.04 92.7"/><polygon class="cls-15" points="236.41 157.17 218.41 148.67 215.18 143.29 233.17 151.79 236.41 157.17"/><polygon class="cls-14" points="237.46 94.33 219.46 85.83 270.04 84.19 288.04 92.7 237.46 94.33"/><polygon class="cls-17" points="233.17 151.79 215.18 143.29 219.46 85.83 237.46 94.33 233.17 151.79"/><polygon class="cls-18" points="237.46 94.33 288.04 92.7 376.16 86.85 397.37 84.59 397.18 134.47 335.07 280.03 309.52 352.67 257.76 341.07 254.13 330.56 335.15 145.9 277.22 149.74 236.41 157.17 233.17 151.79 237.46 94.33"/></g><text class="cls-19" transform="translate(2.35 426.49)">Developers</text></svg>