<svg id="Capa_9" data-name="Capa 9" xmlns="http://www.w3.org/2000/svg" xmlns:xlink="http://www.w3.org/1999/xlink" viewBox="0 0 700.22 707.66"><defs><style>.cls-1{fill:none;}.cls-2{isolation:isolate;}.cls-3{clip-path:url(#clip-path);}.cls-4{fill:#8a8a8a;}.cls-5{clip-path:url(#clip-path-2);}.cls-6{fill:#787878;}.cls-7{clip-path:url(#clip-path-3);}.cls-8{clip-path:url(#clip-path-4);}.cls-9{fill:#7c7c7c;}.cls-10{fill:#818181;}.cls-11{fill:#858585;}.cls-12{clip-path:url(#clip-path-5);}.cls-13{clip-path:url(#clip-path-6);}.cls-14{clip-path:url(#clip-path-7);}.cls-15{fill:#cecece;}</style><clipPath id="clip-path" transform="translate(-322.15 -40.78)"><path class="cls-1" d="M800.8,578.05l-11.4-4.15c9.6,3.49,19.43,6.51,29,10l11.4,4.15C820.23,584.56,810.4,581.54,800.8,578.05Z"/></clipPath><clipPath id="clip-path-2" transform="translate(-322.15 -40.78)"><path class="cls-1" d="M779.2,83.45l11.4,4.15a305.41,305.41,0,0,1,96.85,57.22c154.75,135.58,138,361.47,12.89,482.17l-11.4-4.15C1014,502.14,1030.8,276.25,876,140.67A305.26,305.26,0,0,0,779.2,83.45Z"/></clipPath><clipPath id="clip-path-3" transform="translate(-322.15 -40.78)"><path class="cls-1" d="M745.87,162.82l-11.4-4.15a16.47,16.47,0,0,0,5.89.78,50.75,50.75,0,0,1,18.27,3L770,166.6a50.75,50.75,0,0,0-18.27-3A16.47,16.47,0,0,1,745.87,162.82Z"/></clipPath><clipPath id="clip-path-4" transform="translate(-322.15 -40.78)"><path class="cls-1" d="M460.17,639.42l-11.4-4.15c6-5.13,11.88-10.42,18.08-15.25,12.23-9.56,25.75-17,39.57-23.71,9-4.4,18.25-8.8,27.81-11.4A145.65,145.65,0,0,0,572,568.22c13-7.9,21.33-19.75,21.61-35.47.28-15.56-.83-31.13-1.3-45.5l11.41,4.15c.46,14.37,1.58,29.94,1.3,45.5-.29,15.72-8.67,27.57-21.62,35.47a145.5,145.5,0,0,1-37.77,16.69c-9.56,2.6-18.79,7-27.81,11.4-13.81,6.72-27.34,14.15-39.57,23.71C472.05,629,466.21,634.29,460.17,639.42Z"/></clipPath><clipPath id="clip-path-5" transform="translate(-322.15 -40.78)"><path class="cls-1" d="M710.26,138.58l11.4,4.15a45.85,45.85,0,0,0-13.62-2.6c-11.12-.51-22.33-1.14-33.47-.83-4.12.11-8.24.35-12.33.78C640,142.4,618.55,149,599.45,161.7c-6.59,4.38-12.05,10.53-18.05,15.85-10.5,9.31-16.55,21.73-22.18,34.16-6.54,14.47-10.16,29.91-11.94,45.66-1.2,10.64-3,21.4-2.57,32,.77,19.53,1.8,39.12,5.83,58.33.79,3.85-.85,8.35-1.62,12.5-.51,2.74-1.93,5.37-2.13,8.1-1.78,23,1.63,43.89,21.92,57.92,1.84,1.28,3.19,3.94,3.85,6.24,5.38,18.69,14.74,35.3,24.85,51.51,1.46,2.32,3.55,4.23,6.31,7.45l-11.41-4.15c-2.75-3.22-4.85-5.13-6.3-7.45-10.11-16.21-19.47-32.82-24.85-51.51-.66-2.3-2-5-3.85-6.24-20.29-14-23.7-34.92-21.93-57.92.21-2.73,1.63-5.36,2.14-8.1.77-4.15,2.41-8.65,1.61-12.5-4-19.21-5-38.8-5.82-58.33-.42-10.58,1.37-21.34,2.57-32,1.78-15.75,5.39-31.19,11.94-45.66,5.63-12.43,11.68-24.85,22.17-34.16,6-5.32,11.47-11.47,18.06-15.85,19.1-12.72,40.56-19.3,62.79-21.62,4.09-.43,8.21-.67,12.33-.78,11.13-.31,22.35.32,33.47.83A45.85,45.85,0,0,1,710.26,138.58Z"/></clipPath><clipPath id="clip-path-6" transform="translate(-322.15 -40.78)"><path class="cls-1" d="M558.5,729.38l-11.4-4.15c-7-2.55-14-5.34-20.84-8.28-33.48-14.36-63.7-34.33-90.81-58.52C420,644.62,406.58,628.22,393.38,612c-22.88-28.09-39.47-60.22-51.51-94.57-13-37.13-20.44-75.63-19.67-104.17l11.4,4.15c-.77,28.54,6.69,67,19.68,104.17,12,34.35,28.62,66.48,51.5,94.57,13.21,16.19,26.6,32.59,42.07,46.4,27.11,24.19,57.33,44.16,90.81,58.52C544.53,724,551.48,726.83,558.5,729.38Z"/></clipPath><clipPath id="clip-path-7" transform="translate(-322.15 -40.78)"><path class="cls-1" d="M789,60.08l11.41,4.15C767.19,52.15,731.82,45.72,694.59,45q-9.57-.19-19,.07c-104.19,2.89-192,46.59-261,130-54.91,66.42-81.6,144.27-81,242.33l-11.4-4.15c-.57-98.06,26.12-175.91,81-242.33,69-83.44,156.81-127.14,261-130,6.28-.17,12.58-.2,19-.07C720.42,41.57,755.79,48,789,60.08Z"/></clipPath></defs><g class="cls-2"><g class="cls-2"><g class="cls-3"><g class="cls-2"><path class="cls-4" d="M800.8,578.05l-11.4-4.15c9.6,3.49,19.43,6.51,29,10l11.4,4.15c-9.61-3.5-19.44-6.52-29-10" transform="translate(-322.15 -40.78)"/></g></g></g><g class="cls-2"><g class="cls-5"><g class="cls-2"><path class="cls-6" d="M900.34,627l-11.4-4.15C1014,502.14,1030.8,276.25,876,140.67A305.26,305.26,0,0,0,779.2,83.45l11.4,4.15a305.41,305.41,0,0,1,96.85,57.22c154.75,135.58,138,361.47,12.89,482.17" transform="translate(-322.15 -40.78)"/></g></g></g><g class="cls-2"><g class="cls-7"><g class="cls-2"><path class="cls-4" d="M745.87,162.82l-11.4-4.15a16.47,16.47,0,0,0,5.89.78,50.75,50.75,0,0,1,18.27,3L770,166.6a50.75,50.75,0,0,0-18.27-3,16.47,16.47,0,0,1-5.89-.78" transform="translate(-322.15 -40.78)"/></g></g></g><g class="cls-2"><g class="cls-8"><g class="cls-2"><path class="cls-6" d="M460.17,639.42l-11.4-4.15c5-4.25,9.89-8.62,14.94-12.75l11.4,4.15c-5.05,4.12-9.93,8.5-14.94,12.75" transform="translate(-322.15 -40.78)"/><path class="cls-9" d="M475.11,626.67l-11.4-4.15c1-.84,2.08-1.68,3.14-2.5,10.83-8.46,22.66-15.25,34.81-21.36l11.41,4.15c-12.16,6.11-24,12.9-34.82,21.36-1.05.82-2.1,1.66-3.14,2.5" transform="translate(-322.15 -40.78)"/><path class="cls-10" d="M513.07,602.81l-11.41-4.15q2.37-1.2,4.76-2.35c9-4.39,18.22-8.79,27.77-11.39l11.4,4.15c-9.55,2.6-18.76,7-27.77,11.39q-2.39,1.15-4.75,2.35" transform="translate(-322.15 -40.78)"/><path class="cls-11" d="M545.59,589.07l-11.4-4.15h.1l11.41,4.15h-.11" transform="translate(-322.15 -40.78)"/><path class="cls-10" d="M545.7,589.05l-11.41-4.15A136.1,136.1,0,0,0,559.77,575l11.4,4.15a136.27,136.27,0,0,1-25.47,9.87" transform="translate(-322.15 -40.78)"/><path class="cls-9" d="M571.17,579.18,559.77,575Q566,571.9,572,568.22a53.8,53.8,0,0,0,6.13-4.33l11.4,4.15a53.8,53.8,0,0,1-6.13,4.33q-6,3.66-12.23,6.81" transform="translate(-322.15 -40.78)"/><path class="cls-6" d="M589.53,568l-11.4-4.15c9.41-7.67,15.25-18.06,15.48-31.14.28-15.56-.83-31.13-1.3-45.5l11.41,4.15c.46,14.37,1.58,29.94,1.3,45.5-.24,13.08-6.08,23.47-15.49,31.14" transform="translate(-322.15 -40.78)"/></g></g></g><g class="cls-2"><g class="cls-12"><g class="cls-2"><path class="cls-6" d="M603.72,491.4l-11.41-4.15c-2.75-3.22-4.85-5.13-6.3-7.45-10.11-16.21-19.47-32.82-24.85-51.51-.66-2.3-2-5-3.85-6.24-20.29-14-23.7-34.92-21.93-57.92.21-2.73,1.63-5.36,2.14-8.1.77-4.15,2.41-8.65,1.61-12.5-4-19.21-5-38.8-5.82-58.33-.42-10.58,1.37-21.34,2.57-32,1.78-15.75,5.39-31.19,11.94-45.66,5.63-12.43,11.68-24.85,22.17-34.16,4.68-4.15,9-8.79,13.84-12.72l11.4,4.15c-4.81,3.93-9.16,8.57-13.83,12.72-10.5,9.31-16.55,21.73-22.18,34.16-6.54,14.47-10.16,29.91-11.94,45.66-1.2,10.64-3,21.4-2.57,32,.77,19.53,1.8,39.12,5.83,58.33.79,3.85-.85,8.35-1.62,12.5-.51,2.74-1.93,5.37-2.13,8.1-1.78,23,1.63,43.89,21.92,57.92,1.84,1.28,3.19,3.94,3.85,6.24,5.38,18.69,14.74,35.3,24.85,51.51,1.46,2.32,3.55,4.23,6.31,7.45" transform="translate(-322.15 -40.78)"/><path class="cls-9" d="M595.23,164.83l-11.4-4.15c1.36-1.11,2.76-2.16,4.22-3.13a124.54,124.54,0,0,1,13-7.57l11.41,4.15a123.66,123.66,0,0,0-13,7.57c-1.46,1-2.86,2-4.22,3.13" transform="translate(-322.15 -40.78)"/><path class="cls-10" d="M612.47,154.13,601.06,150A133.84,133.84,0,0,1,626,140.5l11.4,4.15a133.48,133.48,0,0,0-24.93,9.48" transform="translate(-322.15 -40.78)"/><path class="cls-11" d="M637.4,144.65,626,140.5a157.47,157.47,0,0,1,24.84-4.57c3.1-.32,6.2-.54,9.32-.68l11.4,4.15c-3.12.14-6.22.36-9.32.68a157.68,157.68,0,0,0-24.84,4.57" transform="translate(-322.15 -40.78)"/><path class="cls-4" d="M671.56,139.4l-11.4-4.15c1,0,2-.08,3-.1,11.13-.31,22.35.32,33.47.83a45.85,45.85,0,0,1,13.62,2.6l11.4,4.15a45.85,45.85,0,0,0-13.62-2.6c-11.12-.51-22.33-1.14-33.47-.83-1,0-2,.06-3,.1" transform="translate(-322.15 -40.78)"/></g></g></g><g class="cls-2"><g class="cls-13"><g class="cls-2"><path class="cls-6" d="M558.5,729.38l-11.4-4.15c-7-2.55-14-5.34-20.84-8.28-33.48-14.36-63.7-34.33-90.81-58.52C420,644.62,406.58,628.22,393.38,612c-22.88-28.09-39.47-60.22-51.51-94.57-13-37.13-20.44-75.63-19.67-104.17l11.4,4.15c-.77,28.54,6.69,67,19.68,104.17,12,34.35,28.62,66.48,51.5,94.57,13.21,16.19,26.6,32.59,42.07,46.4,27.11,24.19,57.33,44.16,90.81,58.52,6.87,2.94,13.82,5.73,20.84,8.28" transform="translate(-322.15 -40.78)"/></g></g></g><g class="cls-2"><g class="cls-14"><g class="cls-2"><path class="cls-6" d="M333.6,417.44l-11.4-4.15c-.57-98.06,26.12-175.91,81-242.33a394.44,394.44,0,0,1,54.56-54.56l11.4,4.15a394.44,394.44,0,0,0-54.56,54.56c-54.91,66.42-81.6,144.27-81,242.33" transform="translate(-322.15 -40.78)"/><path class="cls-9" d="M469.19,120.55l-11.4-4.15A337.16,337.16,0,0,1,519.4,76.31l11.4,4.15a337.16,337.16,0,0,0-61.61,40.09" transform="translate(-322.15 -40.78)"/><path class="cls-10" d="M530.8,80.46l-11.4-4.15a324.7,324.7,0,0,1,61-23.3l11.4,4.15a324.7,324.7,0,0,0-61,23.3" transform="translate(-322.15 -40.78)"/><path class="cls-11" d="M591.75,57.16,580.35,53a354.44,354.44,0,0,1,77.8-11.86l11.4,4.15a354.44,354.44,0,0,0-77.8,11.86" transform="translate(-322.15 -40.78)"/><path class="cls-4" d="M669.55,45.3l-11.4-4.15q3-.13,6.07-.22c6.28-.17,12.58-.2,19-.07,37.23.71,72.6,7.14,105.79,19.22l11.41,4.15C767.19,52.15,731.82,45.72,694.59,45q-9.57-.19-19,.07-3,.09-6.08.22" transform="translate(-322.15 -40.78)"/></g></g></g><path class="cls-15" d="M900.24,123.32C985.45,196.8,1027,292.31,1022,407.61c-4.07,94-41,174.71-108,240.28-66.17,64.75-144.85,97.93-234.14,100.4q-9,.24-18.06.09c-19.8-.36-39.69-3-59.13-6.66-22.37-4.19-44-11.64-65-20.62-33.48-14.36-63.7-34.33-90.81-58.52-15.47-13.81-28.86-30.21-42.07-46.4-22.88-28.09-39.47-60.22-51.5-94.57-13-37.13-20.45-75.63-19.68-104.17-.57-98.06,26.12-175.91,81-242.33,69-83.44,156.81-127.14,261-130q9.4-.26,19-.07C772.16,46.49,841.65,72.81,900.24,123.32Zm.1,503.67c125.07-120.7,141.86-346.59-12.89-482.17C828.25,93,752,66.81,675,68.93,584.59,71.43,493.22,113,427.5,197.81c-115,148.46-78.54,345.78,32.67,441.61,6-5.13,11.88-10.42,18.08-15.25,12.23-9.56,25.76-17,39.57-23.71,9-4.4,18.25-8.8,27.81-11.4a145.5,145.5,0,0,0,37.77-16.69c13-7.9,21.33-19.75,21.62-35.47.28-15.56-.84-31.13-1.3-45.5-2.76-3.22-4.85-5.13-6.31-7.45-10.11-16.21-19.47-32.82-24.85-51.51-.66-2.3-2-5-3.85-6.24-20.29-14-23.7-34.92-21.92-57.92.2-2.73,1.62-5.36,2.13-8.1.77-4.15,2.41-8.65,1.62-12.5-4-19.21-5.06-38.8-5.83-58.33-.42-10.58,1.37-21.34,2.57-32,1.78-15.75,5.4-31.19,11.94-45.66,5.63-12.43,11.68-24.85,22.18-34.16,6-5.32,11.46-11.47,18.05-15.85,19.1-12.72,40.57-19.3,62.79-21.62,4.09-.43,8.21-.67,12.33-.78,11.14-.31,22.35.32,33.47.83,13.23.6,24.72,5.9,32,17.58,3,4.82,6.47,6,11.7,5.89,19.89-.3,35,10,45.93,25.22,12.48,17.47,16.14,38.92,17.76,60.24,1,12.9-.2,26.08-1,39.1a288.36,288.36,0,0,1-9.82,59.55c4.77,5.29,6.43,11.69,6,19-.28,4.35.34,8.75,0,13.09-1.23,14.84-6.84,27.62-18.57,37.11-5.81,4.69-9.68,9.82-11.88,17.63-5.41,19.17-12.83,37.71-26.09,54.06.09,12,.81,24.57.14,37.12-1.22,22.76,11.47,36.46,29.11,45.08,16.36,8,34.37,12.52,51.44,19.14,11,4.27,22.16,8.72,32.39,14.58,11.52,6.6,22.1,14.87,33.23,22.52" transform="translate(-322.15 -40.78)"/></g></svg>